# xmcd CD database file
#
# Track frame offsets:
#	150
#	21022
#	35303
#	56233
#
# Disc length: 937 seconds
#
# Revision: 0
# Processed by: cddbd v1.5.1PL0 Copyright (c) Steve Scherf et al.
# Submitted via: CDex 1.51
#
DISCID=2b03a704
DTITLE=椎名へきる - あなたも知らない恋の果てに
DYEAR=2004
DGENRE=Pop
TTITLE0=椎名へきる - あなたも知らない恋の果てに
TTITLE1=椎名へきる - No,No,No!
TTITLE2=椎名へきる - あなたも知らない恋の果てに(backtracks)
TTITLE3=椎名へきる - No,No,No!(backtracks)
EXTD=YEAR: 2004
EXTT0=
EXTT1=
EXTT2=
EXTT3=
PLAYORDER=
